<?xml version="1.0" standalone="no"?>
<!DOCTYPE svg PUBLIC "-//W3C//DTD SVG 1.1//EN" "http://www.w3.org/Graphics/SVG/1.1/DTD/svg11.dtd" >
<!--
2013-9-30: Created.
-->
<svg>
<metadata>
Created by iconfont
</metadata>
<defs>

<font id="iconfont" horiz-adv-x="1024" >
  <font-face
    font-family="iconfont"
    font-weight="500"
    font-stretch="normal"
    units-per-em="1024"
    ascent="896"
    descent="-128"
  />
    <missing-glyph />
    
    <glyph glyph-name="weichulidingdan" unicode="&#58929;" d="M789.04832-53.72928 236.14464-53.72928c-70.7072 0-78.38208 26.10176-78.99136 77.84448L157.15328 763.62752c0 42.98752 16.0256 78.45376 78.99136 77.84448 0 0 453.2224 0 327.15776 0l55.20896 0 243.74784-258.69312 5.78048-4.60288 0-9.15968 0-8.66816 0-49.7152 0-486.51776C868.03968-33.9712 846.3104-53.72928 789.04832-53.72928zM631.08096 743.8848l0-142.81728c0-21.49376 4.52096-22.89152 26.33216-22.89152l131.65056 0L631.08096 743.8848zM815.38048 525.5168l-184.29952 0c-43.6224 0-52.6592 35.99872-52.6592 78.98624L578.42176 788.80768 236.13952 788.80768c-21.8112 0-26.33216-4.83328-26.33216-26.32704l0-737.21856c0-21.49376 4.51584-26.33216 26.33216-26.33216l552.91392 0c21.8112 0 26.32704 4.83328 26.32704 26.33216L815.38048 525.5168 815.38048 525.5168zM288.79872 358.04672l447.59552 0 0-21.9392L288.79872 336.10752 288.79872 358.04672zM288.79872 360.96l447.59552 0 0-6.5792L288.79872 354.3808 288.79872 360.96zM288.79872 446.52544l210.6368 0 0-52.6592-210.6368 0L288.79872 446.52544zM288.79872 551.84384l210.6368 0 0-52.6592-210.6368 0L288.79872 551.84384zM517.22752 81.76128c18.00192 7.79776 34.60096 18.60096 49.80224 32.39936 8.59648 8.20224 16.50176 16.59904 23.70048 25.20064 4.39296 5.59616 8.40192 11.10016 12.00128 16.50176l7.79776 15.0016-38.4 0c-6.20032-0.19968-24.89856-0.90112-56.09984-2.0992 0.7936 6.1952 1.19808 10.79808 1.19808 13.7984-0.19968 2.80064-0.59904 7.30112-1.19808 13.50144l12.29824-0.90112 106.50112-0.90112 0 45.9008-53.4016 0c-13.39904-0.19968-27.60192-0.90112-42.5984-2.0992 0.7936 6.79424 1.19808 11.6992 1.19808 14.69952-0.19968 3.00032-0.59904 7.79776-1.19808 14.40256 2.40128-0.19968 4.59776-0.40448 6.59968-0.59904 15.19616-0.79872 44.99968-1.19808 89.40032-1.19808l0 15.60064c0 12.19584-0.59904 25.20064-1.80224 38.99904 6.79424-0.79872 11.6992-1.19808 14.69952-1.19808 3.39968 0.19456 8.40192 0.59904 15.0016 1.19808-0.19968-5.80608-0.59904-11.6992-1.19808-17.69984l-0.90112-36.89984 38.09792 0c19.79904 0 38.09792 0.59904 54.90176 1.80224-0.79872-6.59968-1.19808-11.40224-1.19808-14.40256 0.19456-3.59936 0.59904-8.50432 1.19808-14.69952-4.60288 0.7936-8.50432 1.19808-11.6992 1.19808-4.00384 0.59904-31.00672 0.90112-80.9984 0.90112l0-45.9008 66.89792 0c12.79488 0 29.10208 0.59904 48.90112 1.80224-0.79872-6.40512-1.19808-10.9056-1.19808-13.50144 0.19456-3.00032 0.59904-7.6032 1.19808-13.7984-8.20736 0.59904-15.0016 0.90112-20.39808 0.90112-13.99808 0.59904-39.59808 0.90112-76.8 0.90112 1.19808-2.60096 2.40128-5.20704 3.59936-7.79776 9.00096-19.60448 23.3984-36.59776 43.20256-51.00032 6.79424-4.80256 14.40256-9.00096 22.79936-12.60032 8.80128-4.00384 17.1008-6.90176 24.89856-8.69888l13.50144-2.69824c-8.8064-6.59968-14.10048-11.20256-15.8976-13.7984-3.00032-3.59936-6.59968-10.19904-10.79808-19.79904-2.60096 1.60256-4.90496 3.10272-6.90176 4.50048-22.4 12.40576-41.40032 26.7008-57.00096 42.90048-14.20288 15.40096-24.6016 30.8992-31.20128 46.49984-1.80224 3.39968-3.4048 6.59968-4.80256 9.6l0-71.3984c0.19456-7.39328 0.90112-27.10016 2.0992-59.10016-7.00416 0.79872-12.10368 1.19808-15.29856 1.19808-3.4048-0.19456-8.40192-0.59904-15.0016-1.19808l1.19808 21.89824c0.59904 12.00128 0.90112 50.69824 0.90112 116.10112l-8.09984-14.40256c-9.40544-17.2032-20.39808-32.70144-32.9984-46.49984-8.6016-9.20064-17.69984-18.29888-27.29984-27.29984-2.20672-1.9968-4.1984-3.59936-6.00064-4.80256-6.59968-4.80256-13.0048-9.7024-19.2-14.69952-3.00032-2.40128-6.00064-4.89984-9.00096-7.5008-5.80608 10.99776-15.0016 19.79904-27.60192 26.39872L517.22752 81.76128z"  horiz-adv-x="1024" />

    
    <glyph glyph-name="xiangyou" unicode="&#58942;" d="M316.017-7.889c8.805 0 17.65 2.828 25.14 8.685l356.91 279.696c32.232 25.261 50.759 63.271 50.759 104.268 0 41.038-18.527 79.047-50.799 104.308l-354.877 278.141c-17.811 13.905-43.388 10.758-57.294-6.933-13.905-17.729-10.797-43.388 6.933-57.294l354.917-278.141c12.43-9.722 19.523-24.305 19.523-40.082 0-15.738-7.092-30.321-19.483-40.043l-356.95-279.696c-17.729-13.905-20.838-39.523-6.933-57.294 8.049-10.239 20.041-15.618 32.153-15.618z"  horiz-adv-x="1024" />

    
    <glyph glyph-name="xiangzuo" unicode="&#58945;" d="M707.982-7.889c-8.805 0-17.65 2.828-25.14 8.685l-356.91 279.696c-32.232 25.261-50.759 63.271-50.759 104.268 0 41.038 18.527 79.047 50.799 104.308l354.878 278.141c17.811 13.905 43.388 10.758 57.294-6.933 13.905-17.729 10.797-43.388-6.933-57.294l-354.917-278.141c-12.43-9.722-19.523-24.305-19.523-40.082 0-15.738 7.092-30.321 19.483-40.043l356.949-279.696c17.729-13.905 20.838-39.523 6.933-57.294-8.047-10.239-20.040-15.618-32.152-15.618z"  horiz-adv-x="1024" />

    
    <glyph glyph-name="xiangyou1" unicode="&#59011;" d="M675.027968 382.897735C674.403822 383.52188 292.824911 2.899226 292.824911 2.899226 279.035374-10.890328 279.035374-33.247603 292.824911-47.037158 306.614466-60.826695 328.971741-60.826695 342.761295-47.037158L724.964334 335.165899C751.909906 362.111453 751.929097 405.869338 724.964334 432.834101L342.761295 815.037158C328.971741 828.826695 306.614466 828.826695 292.824911 815.037158 279.035374 801.247603 279.035374 778.890328 292.824911 765.100774L675.027968 382.897735Z"  horiz-adv-x="1024" />

    
    <glyph glyph-name="cansaitubiaozhuanqu-" unicode="&#58881;" d="M648.759 719.072c-0.777-55.108-45.906-99.545-101.473-99.545-55.564 0-100.697 44.437-101.475 99.545H272.194v-231.771c-0.797 0.019-1.594 0.03-2.393 0.03-56.051 0-101.492-45.215-101.492-100.995 0-55.773 45.441-100.986 101.492-100.986 0.799 0 1.596 0.012 2.393 0.029v-235.771h173.611c0.465 55.379 45.719 100.131 101.48 100.131s101.016-44.752 101.48-100.131h194.611V719.072H648.759zM883.378 9.608H609.101l-0.332 39.664c-0.28 33.342-27.861 60.467-61.482 60.467s-61.202-27.125-61.481-60.467l-0.333-39.664H232.194V250.405c-59.827 16.45-103.885 71.159-103.885 135.932 0 64.776 44.058 119.489 103.885 135.94V759.072h253.057l0.557-39.436c0.468-33.145 28.047-60.109 61.479-60.109 33.431 0 61.009 26.965 61.477 60.109l0.557 39.436H883.38v-749.464z m-200.613 80h120.613V679.072H682.582c-6.788-22.103-19.021-42.314-35.985-58.976-26.638-26.161-61.906-40.569-99.311-40.569-37.403 0-72.672 14.407-99.31 40.568-16.967 16.663-29.199 36.874-35.988 58.977h-99.794V446.36l-40.931 0.952a64.71 64.71 0 0 1-1.462 0.02c-33.907 0-61.492-27.362-61.492-60.995 0-33.628 27.585-60.986 61.492-60.986 0.504 0 1.006 0.009 1.508 0.02l40.885 0.905v-236.667h99.613c6.713 22.204 18.914 42.526 35.897 59.296 26.67 26.333 62.035 40.835 99.581 40.835s72.911-14.502 99.581-40.835c16.985-16.771 29.186-37.093 35.899-59.297zM843.353 36.629H648.741c-6.588 0-11.944 5.312-12 11.899-0.197 23.599-9.586 45.758-26.436 62.395-16.874 16.661-39.264 25.837-63.045 25.837s-46.171-9.176-63.045-25.837c-16.85-16.637-26.238-38.796-26.436-62.395-0.056-6.588-5.412-11.899-12-11.899h-173.61c-6.627 0-12 5.373-12 12V272.773c-58.102 4.87-103.885 53.506-103.885 112.587 0 59.083 45.783 107.721 103.885 112.592V718.093c0 6.627 5.373 12 12 12h173.617c6.562 0 11.906-5.27 11.999-11.831 0.331-23.489 9.778-45.523 26.602-62.045 16.854-16.553 39.184-25.668 62.874-25.668 23.691 0 46.021 9.116 62.874 25.668 16.821 16.521 26.269 38.556 26.6 62.045 0.093 6.552 5.424 11.818 11.976 11.831l155.826 0.299h0.023c6.617 0 11.987-5.357 12-11.977 0.013-6.627-5.35-12.01-11.977-12.023l-144.629-0.277c-3.003-25.371-14.483-48.832-33.003-67.02-21.369-20.987-49.67-32.545-79.69-32.545-30.02 0-58.321 11.558-79.69 32.545-18.516 18.183-29.995 41.636-33.002 66.999h-150.4v-219.77a12 12 0 0 0-3.608-8.578 11.958 11.958 0 0 0-8.656-3.419 94.293 94.293 0 0 1-2.128 0.026c-49.346 0-89.492-39.922-89.492-88.993 0-49.068 40.146-88.988 89.492-88.988 0.71 0 1.419 0.011 2.128 0.026a12 12 0 0 0 12.264-11.997V60.63H434.5c2.885 25.482 14.312 49.064 32.853 67.371 21.396 21.126 49.774 32.76 79.908 32.76s58.513-11.634 79.908-32.76c18.541-18.307 29.968-41.889 32.853-67.371h171.331V558.062c0 6.627 5.373 12 12 12s12-5.373 12-12v-509.433c0-6.627-5.374-12-12-12zM150.757 705.9c-6.624 0-11.995 5.367-12 11.992-0.005 6.627 5.364 12.003 11.992 12.008l288.396 0.193h0.008c6.624 0 11.995-5.367 12-11.992 0.005-6.627-5.364-12.003-11.992-12.008l-288.396-0.193h-0.008zM150.757 36.895c-6.624 0-11.995 5.367-12 11.992-0.005 6.627 5.364 12.003 11.992 12.008l288.396 0.195h0.008c6.624 0 11.995-5.367 12-11.992 0.005-6.627-5.364-12.003-11.992-12.008l-288.396-0.195h-0.008zM541.472 252.272a7.076 7.076 0 0 0-10.051 0L346.394 434.55c-2.773 2.792-2.775 7.32 0 10.113l70.322 76.219a7.08 7.08 0 0 0 10.053 0l109.207-107.47 263.697 260.677a7.082 7.082 0 0 0 10.053 0l70.994-75.614c2.777-2.793 2.775-7.319 0-10.111L541.472 252.272zM536.447 238.177c-5.09 0-9.874 1.98-13.48 5.578L337.972 426.001l-0.092 0.092c-7.338 7.387-7.401 19.365-0.191 26.832l70.208 76.095a18.955 18.955 0 0 0 13.845 5.956c5.091 0 9.875-1.98 13.481-5.577l100.734-99.131 255.279 252.356c3.543 3.56 8.349 5.559 13.463 5.559a18.963 18.963 0 0 0 13.774-5.879l70.903-75.518c7.262-7.464 7.213-19.478-0.146-26.882L549.917 243.748c-3.545-3.569-8.353-5.571-13.47-5.571zM358.2 439.764l178.236-175.589L868.894 593.54l-64.327 68.514-260.155-257.176c-4.667-4.613-12.175-4.623-16.854-0.019L421.916 508.822 358.2 439.764zM382.313 417.499l44.184 42.681 110-107.006 265 266.006 45.375-46.493L536.833 263.36zM626.498 253.174a11.966 11.966 0 0 0-8.625 3.655c-4.608 4.763-4.483 12.36 0.279 16.969l109.889 106.33c4.764 4.607 12.36 4.482 16.969-0.279 4.608-4.763 4.483-12.36-0.279-16.969L634.842 256.55a11.964 11.964 0 0 0-8.344-3.376z"  horiz-adv-x="1024" />

    
    <glyph glyph-name="guanliyuan" unicode="&#58973;" d="M721.3 557.4c0 110.8-90.2 201-201 201s-201-90.2-201-201c0-72.5 38.6-136.1 96.2-171.5-10.4-3.3-20.6-7.1-30.7-11.3-42.1-17.8-79.9-43.3-112.4-75.8s-58-70.3-75.8-112.4c-18.4-43.6-27.8-89.9-27.8-137.6h46c0 169.6 138 307.6 307.6 307.6 109.9 1.2 198.9 90.9 198.9 201z m-356 0c0 85.5 69.5 155 155 155s155-69.5 155-155-69.5-155-155-155-155 69.5-155 155zM765.5 214v50.2H843v46h-77.4v58H843v46H719.5v-204.8c-40.7-13.8-69.6-52.3-69.6-97.2 0-56.6 46-102.6 102.6-102.6 56.6 0 102.6 46 102.6 102.6 0.1 52.2-39.1 95.4-89.6 101.8z m-13-158.4c-31.2 0-56.6 25.4-56.6 56.6 0 30 23.4 54.8 53.3 56.6 1.1 0.1 2.2 0.1 3.3 0.1 31.2 0 56.6-25.4 56.6-56.6s-25.3-56.7-56.6-56.7z"  horiz-adv-x="1024" />

    
    <glyph glyph-name="home" unicode="&#58888;" d="M1017.155461 449.571828L529.688188 884.041895c-0.069794 0.04653-0.069794 0.139589-0.139588 0.186118a23.032148 23.032148 0 0 1-16.494741 6.793321 23.264796 23.264796 0 0 1-16.49474-6.793321c-0.04653-0.04653-0.069794-0.139589-0.139589-0.186118L7.160868 449.571828a23.241531 23.241531 0 1 1 32.896422-32.896422l42.20234 37.479587v-512.360605c0-38.479973 31.314416-69.794388 69.794388-69.794388h221.248211a23.032148 23.032148 0 0 1 21.752584 15.773532 23.101943 23.101943 0 0 1 2.000773 9.305918V113.139611c0 64.141043 51.647847 116.32398 115.114211 116.323981s115.114211-52.182938 115.114211-116.323981v-217.874815a23.264796 23.264796 0 0 1 23.264796-23.264796c0.255913 0 0.488561 0.139589 0.721209 0.139589s0.488561-0.139589 0.721208-0.139589h221.271476c38.479973 0 69.794388 31.314416 69.794388 69.794388V453.410519l41.201954-36.735113a23.241531 23.241531 0 1 1 32.896422 32.896422z m-120.627968-507.800705a23.264796 23.264796 0 0 0-23.264796-23.264796h-199.449097V113.139611c0 89.778848-72.516369 162.853573-161.643803 162.853573-89.127434 0-161.643803-73.074725-161.643803-162.853573v-194.610019H152.054018c-12.818903 0-23.264796 10.422629-23.264796 23.264796V495.47327L513.030594 836.67477l384.241373-342.457799c-0.209383-1.233034-0.744473-2.373009-0.744474-3.652572v-548.793276z"  horiz-adv-x="1024" />

    
    <glyph glyph-name="sousuo" unicode="&#59266;" d="M949.76 11.6736a88.68864 88.68864 0 0 0-25.64096-62.67904 87.14752 87.14752 0 0 0-123.76576-0.16896l-164.29568 160.87552a382.4128 382.4128 0 0 0-26.43968-12.6208 382.83776 382.83776 0 0 0-300.032 0 383.38048 383.38048 0 0 0-122.48064 83.39968 391.296 391.296 0 0 0 0 550.36928 384.56832 384.56832 0 0 0 627.55328-123.648 391.00416 391.00416 0 0 0-40.704-376.57088l150.32832-156.56448a88.576 88.576 0 0 0 25.47712-62.39232z m-153.6512 444.04736c0 186.33216-150.41536 337.92-335.30368 337.92s-335.32928-151.6032-335.32928-337.92S275.89632 117.76 460.8 117.76s335.3088 151.64928 335.3088 337.96096z m-503.61344-168.90368a240.45568 240.45568 0 0 0 0 337.73568l34.63168-40.07424a183.46496 183.46496 0 0 1 0-257.50528z"  horiz-adv-x="1024" />

    
    <glyph glyph-name="zhuangtaixiugai" unicode="&#59083;" d="M300.714667 243.086222c41.699556 0 41.699556-65.137778 0-65.137778H227.555556c-41.699556-0.113778-41.699556 65.137778 0 65.137778h73.159111zM227.498667 438.670222h130.104889c41.699556 0 41.699556-65.194667 0-65.194666H227.555556c-41.699556 0-41.699556 65.194667 0 65.194666zM56.888889 536.462222a97.735111 97.735111 0 0 0 97.507555 97.735111h316.984889c19.342222 0 32.540444-15.246222 32.540445-32.597333a32.142222 32.142222 0 0 0-32.540445-32.597333H154.453333a33.507556 33.507556 0 0 1-32.540444-32.540445v-456.419555c0.455111-17.806222 14.791111-32.085333 32.540444-32.597334h657.237334c42.666667 0 42.666667-65.194667 0-65.194666H154.396444A97.678222 97.678222 0 0 0 56.888889 80.099556V536.462222z m381.041778-228.124444c0.056889 1.024 0.568889 1.934222 1.422222 4.437333l304.867555 439.580445c10.979556 15.644444 27.648 25.827556 47.047112 28.899555 21.959111 3.470222 45.511111-2.673778 64.512-16.952889l48.355555-36.522666c19.000889-14.222222 31.971556-35.498667 35.555556-58.254223 3.185778-20.024889-1.080889-39.651556-12.003556-55.182222l-304.924444-439.523555a6.542222 6.542222 0 0 0-5.404445-2.844445l-157.354666-72.476444a28.273778 28.273778 0 0 0-28.444445 3.015111 30.606222 30.606222 0 0 0-11.719111 27.192889l18.090667 178.631111z m403.000889 291.612444l36.579555 52.110222a17.92 17.92 0 0 1 2.844445 13.084445 24.177778 24.177778 0 0 1-9.443556 15.36l-48.412444 36.408889c-9.102222 6.883556-22.471111 5.802667-28.16-2.332445l-36.067556-51.370666 82.659556-63.260445z m-120.206223 9.784889l-202.353777-293.376 83.228444-62.577778 201.841778 292.636445-82.716445 63.317333z m-230.001777-344.974222l-9.159112-90.737778 80.384 37.148445-71.224888 53.589333z"  horiz-adv-x="1024" />

    
    <glyph glyph-name="gongdanguanli-gongda" unicode="&#59157;" d="M942.84 491.18h2.36a15 15 0 0 1 15 15V771.84a60 60 0 0 1-60 60H125.34a60 60 0 0 1-60-60V-3a60 60 0 0 1 60-60h750a84.61 84.61 0 0 1 60.94 25.84c1 1 1.88 2 2.79 3 0.9 1 1.77 2.07 2.62 3.13v0.06c0.85 1.06 1.67 2.14 2.47 3.25 0.79 1.11 1.56 2.24 2.3 3.38 0.75 1.15 1.46 2.32 2.15 3.51 0.69 1.2 1.36 2.41 2 3.64l0.9 1.58a10.57 10.57 0 0 1 0.65 1.41l0.28 0.78a77 77 0 0 1 1.64 3.86 84.61 84.61 0 0 1 6 31.23V249.25L858 351.42a84.85 84.85 0 0 1-120 0l-66.89-66.88a7.62 7.62 0 0 0-10.8 0L478.53 466.33a84.87 84.87 0 0 1-120 0L110.74 218.56a7.64 7.64 0 0 0-13 5.4V774.48a25 25 0 0 0 25 25h780.1a25 25 0 0 0 25-25v-268.3a15 15 0 0 1 15-15zM694 261.66L751.35 319a66 66 0 0 0 93.34 0l80.92-80.92a7.65 7.65 0 0 0 2.23-5.4v-197.34a7.59 7.59 0 0 0-13-5.36L694 250.85a7.65 7.65 0 0 0 0 10.81zM99.94 162l271.91 271.9a66 66 0 0 0 93.34 0l177.65-177.65 22.88-22.88 238.1-238.09a7.62 7.62 0 0 0-0.53-11.29 65.69 65.69 0 0 0-41.45-14.66H122.7a25 25 0 0 0-25 25V156.59a7.64 7.64 0 0 0 2.24 5.41z m658.98 482.09c-40.09 39.37-105.16 38.76-144.53-1.33A102.21 102.21 0 0 1 737.28 482l0.06-0.06A15.87 15.87 0 0 1 715 504.49a72.2 72.2 0 1 0 39 38.93 15.86 15.86 0 0 1 22.54-22.33l-0.06 0.05a102.24 102.24 0 0 1-17.56 122.95z"  horiz-adv-x="1024" />

    
    <glyph glyph-name="tupian" unicode="&#59504;" d="M829.64898 46.497959H194.35102c-43.885714 0-79.412245 35.526531-79.412244 79.412245V642.089796c0 43.885714 35.526531 79.412245 79.412244 79.412245h635.29796c43.885714 0 79.412245-35.526531 79.412244-79.412245v-516.179592c0-43.885714-35.526531-79.412245-79.412244-79.412245zM909.061224 239.804082l-39.706122 48.065306L626.416327 530.285714c-19.330612 19.330612-50.677551 19.330612-70.008164 0L419.526531 393.926531c-2.612245-2.612245-5.22449-3.134694-6.791837-3.134694-1.567347 0-4.702041 0.522449-6.791837 3.134694L368.326531 431.020408c-19.330612 19.330612-50.677551 19.330612-70.008164 0l-143.673469-143.673469-39.706122-48.065306v-113.893878c0-43.885714 35.526531-79.412245 79.412244-79.412245h635.29796c43.885714 0 79.412245 35.526531 79.412244 79.412245v114.416327M273.763265 582.530612m-49.632653 0a49.632653 49.632653 0 1 1 99.265306 0 49.632653 49.632653 0 1 1-99.265306 0ZM644.179592 128h-365.714286c-11.493878 0-20.897959 9.404082-20.897959 20.897959s9.404082 20.897959 20.897959 20.897959h365.714286c11.493878 0 20.897959-9.404082 20.897959-20.897959s-9.404082-20.897959-20.897959-20.897959zM461.322449 225.17551h-182.857143c-11.493878 0-20.897959 9.404082-20.897959 20.897959s9.404082 20.897959 20.897959 20.89796h182.857143c11.493878 0 20.897959-9.404082 20.897959-20.89796s-9.404082-20.897959-20.897959-20.897959z"  horiz-adv-x="1024" />

    
    <glyph glyph-name="aixin" unicode="&#59563;" d="M667.786667 778.666667C832.864 778.666667 938.666667 646.293333 938.666667 468.138667c0-138.250667-125.098667-290.506667-371.573334-461.589334a96.768 96.768 0 0 0-110.186666 0C210.432 177.632 85.333333 329.888 85.333333 468.138667 85.333333 646.293333 191.136 778.666667 356.213333 778.666667c59.616 0 100.053333-20.832 155.786667-68.096C567.744 757.824 608.170667 778.666667 667.786667 778.666667z m0-63.146667c-41.44 0-70.261333-15.189333-116.96-55.04-2.165333-1.845333-14.4-12.373333-17.941334-15.381333a32.32 32.32 0 0 0-41.770666 0c-3.541333 3.018667-15.776 13.536-17.941334 15.381333-46.698667 39.850667-75.52 55.04-116.96 55.04C230.186667 715.52 149.333333 614.741333 149.333333 469.301333 149.333333 358.4 262.858667 220.757333 493.632 61.173333a32.352 32.352 0 0 1 36.736 0C761.141333 220.746667 874.666667 358.4 874.666667 469.301333c0 145.44-80.853333 246.218667-206.88 246.218667z"  horiz-adv-x="1024" />

    
    <glyph glyph-name="bianji" unicode="&#59564;" d="M862.709333 779.957333a32 32 0 1 0 45.248-45.248L455.445333 282.186667a32 32 0 1 0-45.258666 45.258666L862.709333 779.946667zM853.333333 448a32 32 0 0 0 64 0v-352c0-64.8-52.533333-117.333333-117.333333-117.333333H224c-64.8 0-117.333333 52.533333-117.333333 117.333333V672c0 64.8 52.533333 117.333333 117.333333 117.333333h341.333333a32 32 0 0 0 0-64H224a53.333333 53.333333 0 0 1-53.333333-53.333333v-576a53.333333 53.333333 0 0 1 53.333333-53.333333h576a53.333333 53.333333 0 0 1 53.333333 53.333333V448z"  horiz-adv-x="1024" />

    
    <glyph glyph-name="caidan" unicode="&#59565;" d="M512 810.666667c71.477333 0 159.68-57.546667 229.258667-147.018667C817.845333 565.173333 864 440.021333 864 309.333333c0-211.808-148.501333-352-352-352S160 97.525333 160 309.333333c0 130.688 46.144 255.84 122.741333 354.314667C352.32 753.12 440.522667 810.666667 512 810.666667z m0-64c-48.213333 0-120.096-46.912-178.741333-122.314667C265.109333 536.746667 224 425.237333 224 309.333333c0-175.616 119.050667-288 288-288s288 112.384 288 288c0 115.904-41.109333 227.402667-109.258667 315.018667C632.096 699.765333 560.213333 746.666667 512 746.666667z m-74.666667-522.666667a53.333333 53.333333 0 1 0 0-106.666667 53.333333 53.333333 0 0 0 0 106.666667z m-96 128a42.666667 42.666667 0 1 0 0-85.333333 42.666667 42.666667 0 0 0 0 85.333333z"  horiz-adv-x="1024" />

    
    <glyph glyph-name="bangzhu" unicode="&#59566;" d="M878.08 164.725333a32 32 0 0 0-54.88 32.938667A360.789333 360.789333 0 0 1 874.666667 384c0 200.298667-162.368 362.666667-362.666667 362.666667S149.333333 584.298667 149.333333 384s162.368-362.666667 362.666667-362.666667a360.789333 360.789333 0 0 1 186.314667 51.445334 32 32 0 0 0 32.928-54.88A424.778667 424.778667 0 0 0 512-42.666667C276.362667-42.666667 85.333333 148.362667 85.333333 384S276.362667 810.666667 512 810.666667s426.666667-191.029333 426.666667-426.666667c0-78.293333-21.152-153.568-60.586667-219.274667zM650.666667 458.666667c0-65.898667-46.72-120.853333-109.194667-135.082667V288a32 32 0 0 0-64 0v64a32 32 0 0 0 32 32C552.266667 384 586.666667 417.6 586.666667 458.666667s-34.4 74.666667-77.194667 74.666666c-26.773333 0-51.082667-13.248-65.173333-34.624a73.088 73.088 0 0 1-8.522667-17.717333 32 32 0 0 0-60.885333 19.690667c3.797333 11.754667 9.173333 22.933333 15.978666 33.237333 25.856 39.253333 70.186667 63.413333 118.613334 63.413333C587.274667 597.333333 650.666667 535.424 650.666667 458.666667zM512 160a32 32 0 1 0 0 64 32 32 0 0 0 0-64z"  horiz-adv-x="1024" />

    
    <glyph glyph-name="chenggong" unicode="&#59567;" d="M878.08 164.725333a32 32 0 0 0-54.88 32.938667A360.789333 360.789333 0 0 1 874.666667 384c0 200.298667-162.368 362.666667-362.666667 362.666667S149.333333 584.298667 149.333333 384s162.368-362.666667 362.666667-362.666667a360.789333 360.789333 0 0 1 186.314667 51.445334 32 32 0 0 0 32.928-54.88A424.778667 424.778667 0 0 0 512-42.666667C276.362667-42.666667 85.333333 148.362667 85.333333 384S276.362667 810.666667 512 810.666667s426.666667-191.029333 426.666667-426.666667c0-78.293333-21.152-153.568-60.586667-219.274667zM374.581333 406.549333l84.341334-83.989333 190.432 190.72a32 32 0 0 0 45.290666-45.226667l-213.013333-213.333333a32 32 0 0 0-45.226667-0.064l-106.986666 106.549333a32 32 0 1 0 45.162666 45.344z"  horiz-adv-x="1024" />

    
    <glyph glyph-name="yewuzhuangtai" unicode="&#58939;" d="M921.6 42.666667h-810.666667a42.666667 42.666667 0 0 1 0-85.333334h810.666667a42.666667 42.666667 0 0 1 0 85.333334zM281.6 512v-341.333333h-42.666667V512h42.666667m0 85.333333h-42.666667a85.333333 85.333333 0 0 1-85.333333-85.333333v-341.333333a85.333333 85.333333 0 0 1 85.333333-85.333334h42.666667a85.333333 85.333333 0 0 1 85.333333 85.333334V512a85.333333 85.333333 0 0 1-85.333333 85.333333zM793.6 384v-213.333333h-42.666667v213.333333h42.666667m0 85.333333h-42.666667a85.333333 85.333333 0 0 1-85.333333-85.333333v-213.333333a85.333333 85.333333 0 0 1 85.333333-85.333334h42.666667a85.333333 85.333333 0 0 1 85.333333 85.333334v213.333333a85.333333 85.333333 0 0 1-85.333333 85.333333zM537.6 682.666667v-512h-42.666667V682.666667h42.666667m0 85.333333h-42.666667a85.333333 85.333333 0 0 1-85.333333-85.333333v-512a85.333333 85.333333 0 0 1 85.333333-85.333334h42.666667a85.333333 85.333333 0 0 1 85.333333 85.333334V682.666667a85.333333 85.333333 0 0 1-85.333333 85.333333z"  horiz-adv-x="1024" />

    
    <glyph glyph-name="gengduo" unicode="&#58978;" d="M0 896h1024v-1024H0zM120 816c-22.056 0-40-17.944-40-40v-224c0-22.056 17.944-40 40-40h224c22.056 0 40 17.944 40 40V776c0 22.056-17.944 40-40 40H120m0 80h224c66.274 0 120-53.726 120-120v-224c0-66.274-53.726-120-120-120H120c-66.274 0-120 53.726-120 120V776C0 842.274 53.726 896 120 896zM680 816c-22.056 0-40-17.944-40-40v-224c0-22.056 17.944-40 40-40h224c22.056 0 40 17.944 40 40V776c0 22.056-17.944 40-40 40H680m0 80h224c66.274 0 120-53.726 120-120v-224c0-66.274-53.726-120-120-120H680c-66.274 0-120 53.726-120 120V776c0 66.274 53.726 120 120 120zM120 256c-22.056 0-40-17.944-40-40v-224c0-22.056 17.944-40 40-40h224c22.056 0 40 17.944 40 40V216c0 22.056-17.944 40-40 40H120m0 80h224c66.274 0 120-53.726 120-120v-224c0-66.274-53.726-120-120-120H120c-66.274 0-120 53.726-120 120V216c0 66.274 53.726 120 120 120zM680 256c-22.056 0-40-17.944-40-40v-224c0-22.056 17.944-40 40-40h224c22.056 0 40 17.944 40 40V216c0 22.056-17.944 40-40 40H680m0 80h224c66.274 0 120-53.726 120-120v-224c0-66.274-53.726-120-120-120H680c-66.274 0-120 53.726-120 120V216c0 66.274 53.726 120 120 120z"  horiz-adv-x="1024" />

    
    <glyph glyph-name="shuju" unicode="&#58981;" d="M0 896h1024v-1024H0zM160 816c-44.112 0-80-35.888-80-80v-704c0-44.112 35.888-80 80-80h704c44.112 0 80 35.888 80 80V736c0 44.112-35.888 80-80 80H160m0 80h704c88.366 0 160-71.634 160-160v-704c0-88.366-71.634-160-160-160H160c-88.366 0-160 71.634-160 160V736C0 824.366 71.634 896 160 896zM552 488v-382a12 12 0 0 0-12-12h-56a12 12 0 0 0-12 12V488a12 12 0 0 0 12 12h56a12 12 0 0 0 12-12zM304 662v-556a12 12 0 0 0-12-12h-56a12 12 0 0 0-12 12V662a12 12 0 0 0 12 12h56a12 12 0 0 0 12-12zM800 342v-236a12 12 0 0 0-12-12h-56a12 12 0 0 0-12 12V342a12 12 0 0 0 12 12h56a12 12 0 0 0 12-12zM808 730a66 66 0 1 0-66-66 66 66 0 0 0 66 66z"  horiz-adv-x="1024" />

    
    <glyph glyph-name="api" unicode="&#59452;" d="M720 696H72a8 8 0 0 0 0 16H720a8 8 0 0 0 0-16zM480 576H152a8 8 0 0 0 0 16H480a8 8 0 0 0 0-16zM480 456H152a8 8 0 0 0 0 16H480a8 8 0 0 0 0-16zM480 336H152a8 8 0 0 0 0 16H480a8 8 0 0 0 0-16zM855.648 445.936l-4.384 2.528c1.68 7.584 2.64 15.44 2.64 23.536s-0.96 15.952-2.64 23.536l4.368 2.528 10.928 9.6a16 16 0 0 1 3.296 20.016l-14 24.256a15.984 15.984 0 0 1-18.976 7.152l-13.776-4.656-4.432-2.56a108.288 108.288 0 0 1-40.688 23.632v4.976l-2.848 14.256a16 16 0 0 1-15.696 12.864h-28a16 16 0 0 1-15.696-12.864l-2.848-14.256v-4.976a108.048 108.048 0 0 1-40.688-23.632l-4.432 2.56-13.776 4.656a15.968 15.968 0 0 1-18.976-7.152l-14-24.256a16 16 0 0 1 3.296-20.016l10.928-9.6 4.368-2.528c-1.68-7.584-2.64-15.44-2.64-23.536s0.96-15.952 2.64-23.536l-4.416-2.528-10.912-9.6a16 16 0 0 1-3.296-20.016l14-24.256c3.808-6.608 11.76-9.6 18.976-7.152l13.776 4.656 4.448 2.56a108.288 108.288 0 0 1 40.688-23.632v-4.992l2.848-14.256a16 16 0 0 1 15.696-12.864h28a16 16 0 0 1 15.696 12.864l2.848 14.256v4.992a108.048 108.048 0 0 1 40.688 23.632l4.448-2.56 13.776-4.656a15.968 15.968 0 0 1 18.976 7.152l14 24.256a16 16 0 0 1-3.296 20.016l-10.912 9.6z m-110.224-39.024a65.088 65.088 0 1 0 0 130.16 65.088 65.088 0 0 0 0-130.16zM759.424 328.4h-28a24.08 24.08 0 0 0-23.536 19.296l-2.864 15.04a114.88 114.88 0 0 0-33.872 19.696l-14.608-5.088a24.08 24.08 0 0 0-28.48 10.736l-14 24.256a24.064 24.064 0 0 0 4.944 30.016l11.664 10.048c-1.136 6.576-1.712 13.152-1.712 19.6s0.576 13.024 1.712 19.6l-11.664 10.048a24.032 24.032 0 0 0-4.944 30.016l14 24.256a24.064 24.064 0 0 0 28.464 10.736l14.592-5.104a114.944 114.944 0 0 0 33.904 19.712l2.864 15.04a24.08 24.08 0 0 0 23.536 19.296h28c11.392 0 21.296-8.112 23.536-19.296l2.864-15.04a115.52 115.52 0 0 0 33.888-19.696l14.592 5.104a24.112 24.112 0 0 0 28.48-10.736l14-24.256a24.064 24.064 0 0 0-4.944-30.016l-11.664-10.048c1.136-6.576 1.712-13.152 1.712-19.6 0-6.416-0.576-12.96-1.68-19.488a6.192 6.192 0 0 0 0.72-0.56l10.912-9.6c8.56-7.52 10.656-20.144 4.944-30.016l-14-24.256a24.096 24.096 0 0 0-28.48-10.736l-14.592 5.104a115.248 115.248 0 0 0-33.904-19.696l-2.864-15.04a24.048 24.048 0 0 0-23.52-19.328z m-87.232 71.744c1.952 0 3.904-0.72 5.408-2.096a99.632 99.632 0 0 1 37.68-21.904 8 8 0 0 0 5.6-7.632v-4.992l2.688-12.672a8.032 8.032 0 0 1 7.84-6.432h28a8.032 8.032 0 0 1 7.856 6.432l2.848 14.256-0.16 3.408a8 8 0 0 0 5.6 7.632 99.632 99.632 0 0 1 37.68 21.904 8.016 8.016 0 0 0 9.408 1.024l4.448-2.576 12.32-4a7.984 7.984 0 0 1 9.488 3.584l14 24.256a8 8 0 0 1-1.648 10l-10.32 9.072-3.696 2.128a8 8 0 0 0-3.808 8.656c1.632 7.328 2.448 14.672 2.448 21.808s-0.816 14.48-2.448 21.808a8 8 0 0 0 3.808 8.656l4.368 2.528 9.648 8.672a8 8 0 0 1 1.648 10l-14 24.256a8.064 8.064 0 0 1-9.504 3.584l-13.76-4.672-3.008-1.92a8.016 8.016 0 0 0-9.408 1.024 99.632 99.632 0 0 1-37.68 21.904 8 8 0 0 0-5.6 7.632v5.008l-2.688 12.688a8.032 8.032 0 0 1-7.856 6.432h-28a8.032 8.032 0 0 1-7.856-6.432l-2.848-14.256 0.16-3.408a8 8 0 0 0-5.6-7.632 99.632 99.632 0 0 1-37.68-21.904 8 8 0 0 0-9.408-1.024l-4.432 2.56-12.336 4.016a8.032 8.032 0 0 1-9.488-3.584l-14-24.256a8 8 0 0 1 1.648-10l10.928-9.6 3.088-1.6a8 8 0 0 0 3.808-8.656c-1.632-7.328-2.448-14.672-2.448-21.808s0.816-14.48 2.448-21.808a8 8 0 0 0-3.808-8.656l-4.384-2.528-9.632-8.672a8 8 0 0 1-1.648-10l14-24.256a8 8 0 0 1 9.488-3.584l13.76 4.656 3.008 1.92a8.288 8.288 0 0 0 4.032 1.056z m73.232-1.232c-40.304 0-73.088 32.784-73.088 73.088s32.784 73.088 73.088 73.088 73.088-32.784 73.088-73.088-32.8-73.088-73.088-73.088z m0 130.176c-31.472 0-57.088-25.616-57.088-57.088s25.616-57.088 57.088-57.088 57.088 25.616 57.088 57.088-25.616 57.088-57.088 57.088zM797.776 97.568l-6.448 3.728c2.48 11.184 3.888 22.784 3.888 34.704s-1.408 23.52-3.888 34.704l6.448 3.728 20.784 18.272a16 16 0 0 1 3.296 20.016l-26.88 46.56a15.984 15.984 0 0 1-18.976 7.152l-26.208-8.864-6.544-3.776a159.568 159.568 0 0 1-60.016 34.864V296l-5.424 27.136a16.048 16.048 0 0 1-15.712 12.864h-53.76a16 16 0 0 1-15.696-12.864l-5.424-27.136v-7.344a159.568 159.568 0 0 1-60.016-34.864l-6.544 3.776-26.208 8.864a15.968 15.968 0 0 1-18.976-7.152l-26.88-46.56a16 16 0 0 1 3.296-20.016l20.784-18.272 6.448-3.728c-2.48-11.184-3.888-22.768-3.888-34.704s1.408-23.52 3.888-34.704l-6.448-3.728-20.784-18.272a16 16 0 0 1-3.296-20.016l26.88-46.56c3.808-6.608 11.76-9.6 18.976-7.152l26.208 8.864 6.56 3.776a159.568 159.568 0 0 1 60.016-34.864v-7.36l5.424-27.136a15.952 15.952 0 0 1 15.664-12.848h53.76a16 16 0 0 1 15.696 12.864L683.2-24v7.36a159.568 159.568 0 0 1 60.016 34.864l6.56-3.776 26.208-8.864a15.968 15.968 0 0 1 18.976 7.152l26.88 46.56a16 16 0 0 1-3.296 20.016l-20.768 18.256zM635.216 40a96 96 0 1 0 0 192 96 96 0 0 0 0-192zM662.096-72h-53.76a24.08 24.08 0 0 0-23.536 19.296l-5.472 30.256a166.56 166.56 0 0 0-53.12 30.848l-1.552-0.896-27.648-9.52a24.048 24.048 0 0 0-28.48 10.736l-26.88 46.56a24.048 24.048 0 0 0 4.96 30.032l23.536 19.92a167.232 167.232 0 0 0-2.912 30.768c0 10.08 0.976 20.368 2.896 30.672l-1.456 0.832-22.064 19.2a24.032 24.032 0 0 0-4.944 30.016l26.88 46.56a24.032 24.032 0 0 0 28.48 10.736l29.12-10.48a166.224 166.224 0 0 0 53.088 30.88V296l5.584 28.704a24.064 24.064 0 0 0 23.536 19.296h53.76c11.408 0 21.312-8.112 23.536-19.296l5.488-30.256a166.08 166.08 0 0 0 53.104-30.848l1.552 0.896 27.664 9.52a24.064 24.064 0 0 0 28.464-10.72l26.896-46.576a24.064 24.064 0 0 0-4.944-30.016l-23.552-19.936c1.936-10.32 2.912-20.656 2.912-30.768 0-10.08-0.976-20.368-2.896-30.672l1.456-0.848a8.976 8.976 0 0 0 1.28-0.928l20.784-18.272c8.56-7.52 10.656-20.144 4.944-30.016l-26.88-46.56a24.064 24.064 0 0 0-28.48-10.736l-29.12 10.48a166.736 166.736 0 0 0-53.088-30.896v-1.552l-5.584-28.704a24.096 24.096 0 0 0-23.552-19.296z m-134.896 98.208c1.952 0 3.904-0.72 5.408-2.112a150.56 150.56 0 0 1 57.008-33.12 8 8 0 0 0 5.6-7.632v-7.344l5.264-25.568a8.032 8.032 0 0 1 7.856-6.432h53.76a8 8 0 0 1 7.84 6.416l5.424 27.136-0.16 5.776a8 8 0 0 0 5.6 7.632 150.624 150.624 0 0 1 57.008 33.136 8.016 8.016 0 0 0 9.408 1.024l6.56-3.776 24.768-8.224a8 8 0 0 1 9.488 3.584l26.88 46.56a8 8 0 0 1-1.648 10l-20.192 17.744-5.76 3.328a8 8 0 0 0-3.808 8.656c2.448 11.072 3.696 22.176 3.696 32.992s-1.248 21.904-3.696 32.992a8 8 0 0 0 3.808 8.656l6.448 3.712 19.504 17.344a8.016 8.016 0 0 1 1.648 10l-26.88 46.56a8.048 8.048 0 0 1-9.488 3.584l-26.224-8.864-5.104-3.136a8.016 8.016 0 0 0-9.408 1.024 150.368 150.368 0 0 1-57.008 33.12 8 8 0 0 0-5.6 7.632V296l-5.28 25.568a8 8 0 0 1-7.84 6.432h-53.76a8 8 0 0 1-7.84-6.416l-5.424-27.152 0.16-5.776a8 8 0 0 0-5.6-7.632 150.464 150.464 0 0 1-57.008-33.12 8 8 0 0 0-9.408-1.04l-6.544 3.776-24.784 8.224a8.048 8.048 0 0 1-9.488-3.584l-26.88-46.56a8 8 0 0 1 1.648-10l20.8-18.288 5.168-2.8a8 8 0 0 0 3.808-8.656c-2.448-11.072-3.696-22.176-3.696-32.992s1.248-21.904 3.696-32.992a8 8 0 0 0-3.808-8.656l-6.448-3.728-19.504-17.344a8 8 0 0 1-1.648-10l26.88-46.56a8.032 8.032 0 0 1 9.488-3.584l26.208 8.864 5.12 3.136a7.744 7.744 0 0 0 3.984 1.088zM635.216 32c-57.344 0-104 46.656-104 104s46.656 104 104 104 104-46.656 104-104-46.656-104-104-104z m0 192c-48.528 0-88-39.472-88-88s39.472-88 88-88 88 39.472 88 88-39.488 88-88 88zM415.952 48H112c-26.464 0-48 21.536-48 48V792c0 26.464 21.536 48 48 48h568c26.464 0 48-21.536 48-48v-153.968a8 8 0 0 0-16 0V792c0 17.648-14.352 32-32 32H112c-17.648 0-32-14.352-32-32V96c0-17.648 14.352-32 32-32h303.952a8 8 0 0 0 0-16zM136 736c-17.648 0-32 14.352-32 32s14.352 32 32 32 32-14.352 32-32-14.352-32-32-32z m0 48c-8.816 0-16-7.184-16-16s7.184-16 16-16 16 7.184 16 16-7.184 16-16 16zM216 736c-17.648 0-32 14.352-32 32s14.352 32 32 32 32-14.352 32-32-14.352-32-32-32z m0 48c-8.816 0-16-7.184-16-16s7.184-16 16-16 16 7.184 16 16-7.184 16-16 16zM104-24h-16a8 8 0 0 0 0 16h16a8 8 0 0 0 0-16zM392-24h-256a8 8 0 0 0 0 16h256a8 8 0 0 0 0-16zM472-72h-16a8 8 0 0 0 0 16h16a8 8 0 0 0 0-16zM424-72h-256a8 8 0 0 0 0 16h256a8 8 0 0 0 0-16zM952 664h-64a8 8 0 0 0 0 16h64a8 8 0 0 0 0-16zM920 632a8 8 0 0 0-8 8v64a8 8 0 0 0 16 0v-64a8 8 0 0 0-8-8zM856 760h-64a8 8 0 0 0 0 16h64a8 8 0 0 0 0-16zM824 728a8 8 0 0 0-8 8V800a8 8 0 0 0 16 0v-64a8 8 0 0 0-8-8z"  horiz-adv-x="1024" />

    
    <glyph glyph-name="panyan" unicode="&#59298;" d="M711.352343 485.066572C694.74651 577.125155 817.525883 662.956551 892.563488 597.052154c87.284406-76.698188-10.378645-201.968436-110.221212-171.662792-25.946613 7.991557-37.051763-32.692732-11.208937-40.580502 140.630643-42.967591 266.731182 135.545106 151.009288 242.030006C815.657727 725.124636 647.004742 605.35507 670.77184 473.857636c4.774177-26.569332 45.35468-15.256608 40.580503 11.208936zM841.915699 310.809119c182.664156 21.276223 272.33565 250.12535 123.505878 375.60317-132.327726 111.362863-343.325583 17.124765-366.262389-150.905501-3.632526-26.465545 36.947977-37.985841 40.580503-11.208937 17.124765 126.100539 164.501527 214.630383 277.836332 145.301033 140.734429-86.454115 83.029162-297.867117-75.660324-316.444892-26.569332-3.113594-26.880691-45.147107 0-42.033513zM329.003053 121.606417c16.605832-91.954797-106.17354-177.786192-181.107359-111.881795C60.611288 86.42281 158.793272 211.589271 258.220693 181.283627c25.946613-7.88777 37.051763 32.692732 11.208937 40.580503C128.487628 264.831721 2.802234 86.42281 118.108982-20.06209c106.588686-98.28577 275.137884 21.691368 251.474574 152.877444-4.774177 26.673118-45.35468 15.360395-40.580503-11.208937zM198.33591 295.967657C15.775541 274.587648-73.99974 45.738521 74.933818-79.635513 207.572904-191.102163 418.259402-96.864064 441.196208 71.269988c3.632526 26.465545-36.947977 37.882055-40.580503 11.10515-17.228551-125.996753-164.501527-214.526596-277.836332-145.301033-140.838215 86.454115-83.029162 297.867117 75.556537 316.444893 26.673118 3.113594 26.984478 45.250893 0 42.137299zM524.951875 504.474639l249.087485-225.735533c20.030785-18.162629 49.817497 11.520296 29.786711 29.786711l-249.087485 225.735534c-20.030785 18.162629-49.921283-11.520296-29.786711-29.786712zM465.170878 461.714621l249.087485-225.735534c20.030785-18.162629 49.817497 11.520296 29.786712 29.786712L494.95759 491.189973c-20.030785 18.162629-49.921283-11.41651-29.786712-29.682925zM409.748913 421.96441l249.087485-225.735534c20.030785-18.162629 49.921283 11.520296 29.786712 29.786712l-249.087485 225.735533c-20.030785 18.162629-49.817497-11.520296-29.682926-29.786711zM352.043645 380.761188l249.087485-225.735533c20.030785-18.266416 49.921283 11.41651 29.786712 29.682925l-249.087485 225.735533C361.799572 428.918102 332.116647 398.923817 352.043645 380.761188zM292.366436 337.897383l249.087484-225.631746c20.030785-18.162629 49.817497 11.520296 29.682926 29.682925L321.738001 367.684095c-20.030785 18.162629-49.921283-11.520296-29.786711-29.786712zM236.840684 298.250959l249.087485-225.735534c20.030785-18.162629 49.817497 11.520296 29.786711 29.786712l-249.087485 225.631747c-20.030785 18.162629-49.921283-11.520296-29.786711-29.682925zM887.166592-95.929986l-73.895954 20.134571 5.189323 83.96324 587.431319 402.691434 68.706631-104.097811-587.431319-402.691434zM1441.905179 355.022148l-36.013899 54.69546-587.535105-402.691434-5.085537-82.821589 628.634541 430.817563zM897.441451-78.182503l-73.792167 20.030785 15.360395-20.238358 5.189322 83.96324-10.378645-18.162629 587.535105 402.691434-28.852633 7.680197 68.706631-103.786452 7.472624 28.852634-587.431318-402.691434c-22.210301-15.256608-1.141651-51.893226 20.75729-36.325258l587.431319 402.587647a21.380009 21.380009 0 0 1 7.576411 28.852634l-68.706632 103.786452a21.483796 21.483796 0 0 1-28.852633 7.576411L1034.231995 175.679159 838.283173 41.37949c-9.755926-6.642333-27.19205-14.530103-33.315451-25.116322-13.388452-23.455738-6.43476-68.395272-7.991556-94.653244a21.276223 21.276223 0 0 1 15.464181-20.75729l73.792167-20.134572c26.154186-6.642333 37.466909 33.93817 11.208937 41.099435zM1726.79899 350.351758C1422.912258 810.748459 1129.611744 875.199846 1129.611744 875.199846l83.029162-163.463662 84.689745-60.403715-28.852634-40.788076 72.650517-51.893226-26.569332-36.325258s188.995129-385.566669 219.819706-443.687083c43.175164-82.510229 266.731182 159.104631 192.420082 271.712932z m-238.70884 15.256608a57.290122 57.290122 0 1 0 76.905761 22.936806 56.667403 56.667403 0 0 0-77.424693-22.936806zM1411.495748 332.189129l65.281679 44.005455a57.393908 57.393908 0 0 0-5.604469 64.3476 56.771189 56.771189 0 0 0 76.905761 22.83302A54.69546 54.69546 0 0 0 1570.28902 439.296747l64.036241 43.071378C1367.801652 821.334677 1133.970775 872.708971 1133.970775 872.708971l83.029162-163.463662 84.378386-60.299929-28.852634-40.788075 72.650516-51.893226-26.154186-36.844191s43.278951-88.529844 92.473729-187.230759zM1409.212446 281.956486c33.523024-67.668767 64.555173-137.517049 101.399364-203.525233 15.152822-27.19205 33.93817-42.552445 66.838475-36.117685 83.029162 16.502046 155.056959 125.78918 177.059687 200.826785a146.338897 146.338897 0 0 1-15.152822 126.308112 1637.231282 1637.231282 0 0 1-166.058323 215.149315c-85.104891 94.860817-182.24901 181.626291-292.574008 246.181464-44.835747 26.154186-94.860817 53.034877-146.027538 64.555173a21.276223 21.276223 0 0 1-23.767098-31.135935c25.220108-49.402351 49.194778-99.73878 75.452751-148.6222 20.030785-37.363123 65.385465-58.327986 99.427421-83.029161l-7.576411 28.852634-28.852634-40.788076a21.483796 21.483796 0 0 1 7.472625-28.852634l72.650516-51.893226-7.472624 28.748847-25.635254-35.910112a20.75729 20.75729 0 0 1 0-20.75729q41.514581-84.793531 83.029162-169.69085c12.039228-24.28603 48.2607-3.009807 36.325258 20.757291q-41.514581 84.897318-83.029162 169.587062v-20.75729l26.0504 36.844191a21.380009 21.380009 0 0 1-7.576411 28.748847l-72.650517 51.893226 7.576411-28.748847 28.852634 40.788075a21.380009 21.380009 0 0 1-7.576411 28.748847l-62.271871 44.731961c-6.642333 4.774177-25.116321 23.870884-14.63389 8.718062a212.65844 212.65844 0 0 0-11.831656 23.248166Q1183.165554 815.937782 1147.774374 885.578491l-23.767098-31.135936c109.079561-24.182243 212.9698-103.786452 294.753524-175.399104a1481.136458 1481.136458 0 0 0 284.271092-330.871209c49.090992-79.604209-22.625447-182.041437-83.859453-234.764954-11.727869-10.378645-33.315451-29.579139-50.02507-29.890499s-18.266416 8.821848-25.946613 23.663311c-33.730597 64.65896-65.281678 130.667143-97.663051 196.052608-12.039228 24.28603-48.364487 3.009807-36.325259-20.75729zM1498.261222 383.770995c-38.297201 23.663311-5.915828 85.520037 34.353316 63.828668s6.227187-83.859453-34.353316-63.828668c-24.493603 11.935442-45.250893-24.389816-21.276222-36.429044a78.358771 78.358771 0 1 1-28.852634 106.17354 79.189063 79.189063 0 0 1 28.852634-106.17354c23.040592-14.218744 44.213029 22.106514 21.276222 36.429044zM1142.481264-26.081704c27.088264 0 27.088264 41.514581 0 41.514581s-27.088264-41.514581 0-41.514581zM1273.355981 110.189908l-86.038969-58.950705c-22.210301-15.256608-1.141651-51.893226 20.75729-36.325258l86.038969 58.950704c22.210301 15.256608 1.141651 51.893226-20.75729 36.325259zM1390.738458 190.209262l-47.430409-32.485159a21.691368 21.691368 0 0 1-7.576411-28.852634 21.380009 21.380009 0 0 1 28.852634-7.472625l46.911476 32.588946a21.483796 21.483796 0 0 1 7.576411 28.748848A20.75729 20.75729 0 0 1 1390.738458 190.209262z"  horiz-adv-x="1762" />

    
    <glyph glyph-name="ExitFullScreen" unicode="&#60060;" d="M348.16 486.4H204.8V527.36h143.36a20.48 20.48 0 0 1 20.48 20.48V691.2h40.96v-143.36A61.44 61.44 0 0 0 348.16 486.4zM409.6 76.8H368.64v143.36a20.48 20.48 0 0 1-20.48 20.48H204.8v40.96h143.36a61.44 61.44 0 0 0 61.44-61.44zM655.36 76.8h-40.96v143.36a61.44 61.44 0 0 0 61.44 61.44H819.2v-40.96h-143.36a20.48 20.48 0 0 1-20.48-20.48zM819.2 486.4h-143.36A61.44 61.44 0 0 0 614.4 547.84V691.2h40.96v-143.36a20.48 20.48 0 0 1 20.48-20.48H819.2z"  horiz-adv-x="1024" />

    


  </font>
</defs>
</svg>
